<svg xmlns="http://www.w3.org/2000/svg" xmlns:xlink="http://www.w3.org/1999/xlink" width="500" zoomAndPan="magnify" viewBox="0 0 375 374.999991" height="500" preserveAspectRatio="xMidYMid meet" version="1.0"><defs><g/><clipPath id="0abfb3651a"><path d="M 0 157.808594 L 332.847656 157.808594 L 332.847656 194.898438 L 0 194.898438 Z M 0 157.808594 " clip-rule="nonzero"/></clipPath></defs><rect x="-37.5" width="450" fill="#ffffff" y="-37.499999" height="449.999989" fill-opacity="1"/><rect x="-37.5" width="450" fill="#ffffff" y="-37.499999" height="449.999989" fill-opacity="1"/><rect x="-37.5" width="450" fill="#000000" y="-37.499999" height="449.999989" fill-opacity="1"/><g fill="#ffffff" fill-opacity="1"><g transform="translate(20.531458, 254.318177)"><g><path d="M -5.890625 39.34375 C 0.390625 38.394531 5.53125 36.425781 9.53125 33.4375 C 13.539062 30.457031 16.644531 25.273438 18.84375 17.890625 C 21.039062 10.515625 22.140625 0.234375 22.140625 -12.953125 L 22.140625 -141.8125 C 22.140625 -147.78125 21.707031 -152.097656 20.84375 -154.765625 C 19.976562 -157.441406 18.445312 -159.25 16.25 -160.1875 C 14.050781 -161.132812 10.441406 -161.765625 5.421875 -162.078125 L 5.421875 -166.796875 C 13.898438 -166.316406 27.015625 -166.078125 44.765625 -166.078125 C 63.140625 -166.078125 77.113281 -166.316406 86.6875 -166.796875 L 86.6875 -162.078125 C 81.664062 -161.765625 78.015625 -161.132812 75.734375 -160.1875 C 73.460938 -159.25 71.929688 -157.441406 71.140625 -154.765625 C 70.359375 -152.097656 69.96875 -147.78125 69.96875 -141.8125 L 69.96875 -36.046875 C 69.96875 -26.929688 69.691406 -18.921875 69.140625 -12.015625 C 68.585938 -5.109375 67.53125 0.859375 65.96875 5.890625 C 62.195312 17.359375 54.265625 26.625 42.171875 33.6875 C 30.078125 40.75 14.054688 44.28125 -5.890625 44.28125 Z M -5.890625 39.34375 "/></g></g></g><g fill="#ffffff" fill-opacity="1"><g transform="translate(174.789295, 286.632378)"><g><path d="M 169.046875 -189.78125 C 177.484375 -189.78125 184.394531 -190.046875 189.78125 -190.578125 L 189.78125 -185.203125 C 185.113281 -182.867188 180.398438 -178.648438 175.640625 -172.546875 C 170.890625 -166.441406 166.628906 -158.097656 162.859375 -147.515625 L 110.359375 0 C 104.617188 -0.351562 99.863281 -0.53125 96.09375 -0.53125 C 92.507812 -0.53125 87.847656 -0.351562 82.109375 0 L 11.578125 -167.96875 C 9.242188 -173.71875 6.6875 -177.984375 3.90625 -180.765625 C 1.125 -183.546875 -1.613281 -185.023438 -4.3125 -185.203125 L -4.3125 -190.578125 C 8.613281 -190.046875 24.945312 -189.78125 44.6875 -189.78125 C 65.144531 -189.78125 80.21875 -190.046875 89.90625 -190.578125 L 89.90625 -185.203125 C 83.082031 -184.835938 78.234375 -184.023438 75.359375 -182.765625 C 72.492188 -181.515625 71.0625 -179.003906 71.0625 -175.234375 C 71.0625 -172.191406 72.140625 -167.976562 74.296875 -162.59375 L 120.859375 -47.921875 L 146.96875 -121.140625 C 152.894531 -137.648438 155.859375 -150.925781 155.859375 -160.96875 C 155.859375 -176.582031 148.5 -184.660156 133.78125 -185.203125 L 133.78125 -190.578125 C 147.238281 -190.046875 158.992188 -189.78125 169.046875 -189.78125 Z M 169.046875 -189.78125 "/></g></g></g><path stroke-linecap="butt" transform="matrix(0.000000000000000046, 0.750203, -0.75, 0.000000000000000046, 145.312788, 55.632668)" fill="none" stroke-linejoin="miter" d="M 0.000192152 2.500384 L 346.911674 2.500384 " stroke="#ffffff" stroke-width="5" stroke-opacity="1" stroke-miterlimit="4"/><g clip-path="url(#0abfb3651a)"><path fill="#000000" d="M -12.269531 157.808594 L 333.191406 157.808594 L 333.191406 195.410156 L -12.269531 195.410156 Z M -12.269531 157.808594 " fill-opacity="1" fill-rule="nonzero"/></g><g fill="#ffffff" fill-opacity="1"><g transform="translate(34.796064, 180.932552)"><g><path d="M 3.84375 0.125 C 3.03125 0.125 2.273438 -0.0507812 1.578125 -0.40625 C 0.890625 -0.757812 0.328125 -1.257812 -0.109375 -1.90625 L 0.796875 -2.9375 C 1.578125 -1.769531 2.601562 -1.1875 3.875 -1.1875 C 5.632812 -1.1875 6.515625 -2.226562 6.515625 -4.3125 L 6.515625 -12.953125 L 1.296875 -12.953125 L 1.296875 -14.25 L 8 -14.25 L 8 -4.375 C 8 -2.882812 7.648438 -1.757812 6.953125 -1 C 6.253906 -0.25 5.21875 0.125 3.84375 0.125 Z M 3.84375 0.125 "/></g></g></g><g fill="#ffffff" fill-opacity="1"><g transform="translate(47.432243, 180.932552)"><g><path d="M 8.0625 0.125 C 6.21875 0.125 4.78125 -0.398438 3.75 -1.453125 C 2.71875 -2.515625 2.203125 -4.0625 2.203125 -6.09375 L 2.203125 -14.25 L 3.703125 -14.25 L 3.703125 -6.15625 C 3.703125 -4.5 4.070312 -3.257812 4.8125 -2.4375 C 5.5625 -1.625 6.644531 -1.21875 8.0625 -1.21875 C 9.488281 -1.21875 10.570312 -1.625 11.3125 -2.4375 C 12.0625 -3.257812 12.4375 -4.5 12.4375 -6.15625 L 12.4375 -14.25 L 13.90625 -14.25 L 13.90625 -6.09375 C 13.90625 -4.0625 13.390625 -2.515625 12.359375 -1.453125 C 11.335938 -0.398438 9.90625 0.125 8.0625 0.125 Z M 8.0625 0.125 "/></g></g></g><g fill="#ffffff" fill-opacity="1"><g transform="translate(65.988194, 180.932552)"><g><path d="M 11.265625 -3.8125 L 3.3125 -3.8125 L 1.609375 0 L 0.046875 0 L 6.5625 -14.25 L 8.046875 -14.25 L 14.5625 0 L 12.96875 0 Z M 10.703125 -5.03125 L 7.28125 -12.6875 L 3.875 -5.03125 Z M 10.703125 -5.03125 "/></g></g></g><g fill="#ffffff" fill-opacity="1"><g transform="translate(83.018425, 180.932552)"><g><path d="M 14.234375 -14.25 L 14.234375 0 L 12.984375 0 L 3.828125 -11.5625 L 3.828125 0 L 2.328125 0 L 2.328125 -14.25 L 3.5625 -14.25 L 12.75 -2.6875 L 12.75 -14.25 Z M 14.234375 -14.25 "/></g></g></g><g fill="#ffffff" fill-opacity="1"><g transform="translate(109.775833, 180.932552)"><g><path d="M 14.171875 -14.25 L 7.859375 0 L 6.375 0 L 0.0625 -14.25 L 1.6875 -14.25 L 7.140625 -1.875 L 12.640625 -14.25 Z M 14.171875 -14.25 "/></g></g></g><g fill="#ffffff" fill-opacity="1"><g transform="translate(126.419549, 180.932552)"><g><path d="M 11.265625 -3.8125 L 3.3125 -3.8125 L 1.609375 0 L 0.046875 0 L 6.5625 -14.25 L 8.046875 -14.25 L 14.5625 0 L 12.96875 0 Z M 10.703125 -5.03125 L 7.28125 -12.6875 L 3.875 -5.03125 Z M 10.703125 -5.03125 "/></g></g></g><g fill="#ffffff" fill-opacity="1"><g transform="translate(143.44978, 180.932552)"><g><path d="M 2.328125 -14.25 L 3.828125 -14.25 L 3.828125 -1.296875 L 11.8125 -1.296875 L 11.8125 0 L 2.328125 0 Z M 2.328125 -14.25 "/></g></g></g><g fill="#ffffff" fill-opacity="1"><g transform="translate(157.876127, 180.932552)"><g><path d="M 2.328125 -14.25 L 8.125 -14.25 C 9.632812 -14.25 10.960938 -13.945312 12.109375 -13.34375 C 13.265625 -12.738281 14.160156 -11.894531 14.796875 -10.8125 C 15.441406 -9.738281 15.765625 -8.507812 15.765625 -7.125 C 15.765625 -5.738281 15.441406 -4.503906 14.796875 -3.421875 C 14.160156 -2.347656 13.265625 -1.507812 12.109375 -0.90625 C 10.960938 -0.300781 9.632812 0 8.125 0 L 2.328125 0 Z M 8.046875 -1.296875 C 9.296875 -1.296875 10.382812 -1.546875 11.3125 -2.046875 C 12.25 -2.546875 12.972656 -3.234375 13.484375 -4.109375 C 14.003906 -4.984375 14.265625 -5.988281 14.265625 -7.125 C 14.265625 -8.257812 14.003906 -9.265625 13.484375 -10.140625 C 12.972656 -11.023438 12.25 -11.710938 11.3125 -12.203125 C 10.382812 -12.703125 9.296875 -12.953125 8.046875 -12.953125 L 3.828125 -12.953125 L 3.828125 -1.296875 Z M 8.046875 -1.296875 "/></g></g></g><g fill="#ffffff" fill-opacity="1"><g transform="translate(177.123728, 180.932552)"><g><path d="M 12.40625 -1.296875 L 12.40625 0 L 2.328125 0 L 2.328125 -14.25 L 12.09375 -14.25 L 12.09375 -12.953125 L 3.828125 -12.953125 L 3.828125 -7.875 L 11.203125 -7.875 L 11.203125 -6.59375 L 3.828125 -6.59375 L 3.828125 -1.296875 Z M 12.40625 -1.296875 "/></g></g></g><g fill="#ffffff" fill-opacity="1"><g transform="translate(193.177507, 180.932552)"><g><path d="M 11.296875 -7.34375 C 12.234375 -7.144531 12.957031 -6.742188 13.46875 -6.140625 C 13.976562 -5.535156 14.234375 -4.757812 14.234375 -3.8125 C 14.234375 -2.582031 13.78125 -1.640625 12.875 -0.984375 C 11.96875 -0.328125 10.632812 0 8.875 0 L 2.328125 0 L 2.328125 -14.25 L 8.46875 -14.25 C 10.050781 -14.25 11.28125 -13.929688 12.15625 -13.296875 C 13.039062 -12.660156 13.484375 -11.757812 13.484375 -10.59375 C 13.484375 -9.800781 13.285156 -9.128906 12.890625 -8.578125 C 12.503906 -8.023438 11.972656 -7.613281 11.296875 -7.34375 Z M 3.828125 -13.015625 L 3.828125 -7.84375 L 8.375 -7.84375 C 9.519531 -7.84375 10.40625 -8.0625 11.03125 -8.5 C 11.65625 -8.9375 11.96875 -9.578125 11.96875 -10.421875 C 11.96875 -11.265625 11.65625 -11.90625 11.03125 -12.34375 C 10.40625 -12.789062 9.519531 -13.015625 8.375 -13.015625 Z M 8.859375 -1.234375 C 10.128906 -1.234375 11.085938 -1.453125 11.734375 -1.890625 C 12.390625 -2.328125 12.71875 -3.003906 12.71875 -3.921875 C 12.71875 -5.703125 11.429688 -6.59375 8.859375 -6.59375 L 3.828125 -6.59375 L 3.828125 -1.234375 Z M 8.859375 -1.234375 "/></g></g></g><g fill="#ffffff" fill-opacity="1"><g transform="translate(210.960439, 180.932552)"><g><path d="M 12.40625 -1.296875 L 12.40625 0 L 2.328125 0 L 2.328125 -14.25 L 12.09375 -14.25 L 12.09375 -12.953125 L 3.828125 -12.953125 L 3.828125 -7.875 L 11.203125 -7.875 L 11.203125 -6.59375 L 3.828125 -6.59375 L 3.828125 -1.296875 Z M 12.40625 -1.296875 "/></g></g></g><g fill="#ffffff" fill-opacity="1"><g transform="translate(227.014227, 180.932552)"><g><path d="M 14.234375 -14.25 L 14.234375 0 L 12.984375 0 L 3.828125 -11.5625 L 3.828125 0 L 2.328125 0 L 2.328125 -14.25 L 3.5625 -14.25 L 12.75 -2.6875 L 12.75 -14.25 Z M 14.234375 -14.25 "/></g></g></g><g fill="#ffffff" fill-opacity="1"><g transform="translate(245.997371, 180.932552)"><g><path d="M 2.328125 -14.25 L 3.828125 -14.25 L 3.828125 0 L 2.328125 0 Z M 2.328125 -14.25 "/></g></g></g><g fill="#ffffff" fill-opacity="1"><g transform="translate(254.585314, 180.932552)"><g><path d="M 5.09375 -12.953125 L 0.078125 -12.953125 L 0.078125 -14.25 L 11.609375 -14.25 L 11.609375 -12.953125 L 6.59375 -12.953125 L 6.59375 0 L 5.09375 0 Z M 5.09375 -12.953125 "/></g></g></g><g fill="#ffffff" fill-opacity="1"><g transform="translate(268.706534, 180.932552)"><g><path d="M 8.546875 0.125 C 7.140625 0.125 5.863281 -0.1875 4.71875 -0.8125 C 3.570312 -1.445312 2.675781 -2.3125 2.03125 -3.40625 C 1.382812 -4.507812 1.0625 -5.75 1.0625 -7.125 C 1.0625 -8.5 1.382812 -9.734375 2.03125 -10.828125 C 2.675781 -11.929688 3.570312 -12.796875 4.71875 -13.421875 C 5.863281 -14.054688 7.140625 -14.375 8.546875 -14.375 C 9.960938 -14.375 11.234375 -14.0625 12.359375 -13.4375 C 13.492188 -12.8125 14.382812 -11.945312 15.03125 -10.84375 C 15.6875 -9.738281 16.015625 -8.5 16.015625 -7.125 C 16.015625 -5.75 15.6875 -4.507812 15.03125 -3.40625 C 14.382812 -2.300781 13.492188 -1.4375 12.359375 -0.8125 C 11.234375 -0.1875 9.960938 0.125 8.546875 0.125 Z M 8.546875 -1.21875 C 9.671875 -1.21875 10.6875 -1.472656 11.59375 -1.984375 C 12.507812 -2.492188 13.222656 -3.195312 13.734375 -4.09375 C 14.253906 -5 14.515625 -6.007812 14.515625 -7.125 C 14.515625 -8.238281 14.253906 -9.242188 13.734375 -10.140625 C 13.222656 -11.046875 12.507812 -11.753906 11.59375 -12.265625 C 10.6875 -12.773438 9.671875 -13.03125 8.546875 -13.03125 C 7.421875 -13.03125 6.398438 -12.773438 5.484375 -12.265625 C 4.566406 -11.753906 3.847656 -11.046875 3.328125 -10.140625 C 2.804688 -9.242188 2.546875 -8.238281 2.546875 -7.125 C 2.546875 -6.007812 2.804688 -5 3.328125 -4.09375 C 3.847656 -3.195312 4.566406 -2.492188 5.484375 -1.984375 C 6.398438 -1.472656 7.421875 -1.21875 8.546875 -1.21875 Z M 8.546875 -1.21875 "/></g></g></g></svg>